<?xml version="1.0" standalone="no"?>
<!DOCTYPE svg PUBLIC "-//W3C//DTD SVG 20010904//EN"
 "http://www.w3.org/TR/2001/REC-SVG-20010904/DTD/svg10.dtd">
<svg version="1.0" xmlns="http://www.w3.org/2000/svg"
 width="169.000000pt" height="117.000000pt" viewBox="0 0 169.000000 117.000000"
 preserveAspectRatio="xMidYMid meet">

<g transform="translate(0.000000,117.000000) scale(0.100000,-0.100000)"
fill="#ffffff" stroke="none">
<path d="M282 886 c-227 -226 -275 -278 -274 -301 0 -23 46 -74 263 -292 145
-146 274 -269 287 -274 15 -6 31 -5 45 2 29 16 37 28 37 63 0 25 -29 59 -192
223 -106 106 -197 193 -203 193 -5 0 79 -89 188 -198 159 -159 197 -202 197
-224 0 -33 -37 -62 -66 -52 -10 4 -137 124 -282 268 -227 226 -262 265 -262
291 0 26 35 65 262 291 145 144 272 264 282 268 29 10 66 -19 66 -52 0 -22
-38 -65 -201 -228 -118 -118 -199 -206 -195 -213 5 -8 205 -11 710 -11 533 0
705 -3 714 -12 16 -16 16 -70 0 -86 -9 -9 -183 -12 -720 -12 -389 0 -708 -3
-708 -7 0 -5 319 -7 709 -5 688 2 709 3 726 22 22 25 22 65 0 90 -18 20 -35
20 -724 20 l-705 0 202 203 c172 172 202 208 202 233 0 16 -4 34 -8 40 -9 14
-47 34 -63 34 -8 0 -137 -123 -287 -274z"/>
</g>
</svg>
